<?xml version="1.0" standalone="no"?>
<!DOCTYPE svg PUBLIC "-//W3C//DTD SVG 20010904//EN"
 "http://www.w3.org/TR/2001/REC-SVG-20010904/DTD/svg10.dtd">
<svg version="1.0" xmlns="http://www.w3.org/2000/svg"
 width="700.000000pt" height="700.000000pt" viewBox="0 0 700.000000 700.000000"
 preserveAspectRatio="xMidYMid meet">
<metadata>
Created by potrace 1.11, written by Peter Selinger 2001-2013
</metadata>
<g transform="translate(0.000000,700.000000) scale(0.100000,-0.100000)"
fill="#000000" stroke="none">
<path d="M1245 6684 c-33 -21 -56 -54 -130 -192 -126 -232 -153 -282 -219
-402 -32 -58 -77 -139 -99 -180 -22 -41 -43 -79 -47 -85 -4 -5 -27 -46 -50
-90 -24 -44 -100 -183 -170 -310 -69 -126 -129 -237 -133 -245 -4 -8 -18 -33
-30 -55 -54 -93 -309 -559 -337 -613 -16 -33 -30 -71 -30 -86 0 -30 23 -90 42
-110 7 -7 33 -37 58 -67 25 -29 72 -85 105 -124 33 -38 94 -110 135 -160 41
-49 84 -101 96 -115 75 -87 988 -1172 1098 -1305 22 -27 55 -65 72 -85 17 -19
42 -48 55 -64 13 -16 29 -34 34 -40 6 -6 66 -78 135 -161 69 -82 137 -163 151
-180 31 -35 295 -349 354 -420 22 -27 92 -110 155 -184 64 -75 185 -219 270
-321 85 -102 164 -196 176 -210 13 -14 98 -115 190 -225 92 -110 170 -202 173
-205 3 -3 24 -27 45 -53 77 -96 115 -117 189 -103 44 8 75 41 382 411 22 27
45 53 50 59 6 6 44 52 85 101 94 113 112 135 125 149 10 10 60 70 354 421 51
61 102 121 114 135 12 14 48 57 81 95 32 39 75 90 96 115 21 25 102 122 181
215 79 94 189 224 244 290 55 66 103 122 106 125 3 3 65 77 139 165 183 219
284 339 290 345 7 7 142 168 240 285 45 55 86 102 89 105 4 3 38 43 76 90 39
47 80 96 92 110 29 34 408 484 458 545 22 26 77 91 122 144 127 147 138 166
137 225 0 34 -8 65 -24 91 -12 22 -47 85 -78 140 -30 55 -67 123 -82 150 -36
65 -236 430 -285 520 -21 39 -46 84 -55 100 -10 17 -31 55 -47 85 -25 46 -437
796 -508 925 -12 22 -46 83 -75 136 -41 76 -60 101 -90 118 l-38 21 -2214 0
-2214 0 -39 -26z m1968 -278 c-4 -5 -104 -150 -223 -321 -119 -170 -236 -339
-261 -375 -25 -36 -124 -177 -220 -315 -96 -137 -201 -289 -234 -337 -33 -48
-85 -123 -115 -167 -30 -44 -58 -77 -61 -73 -3 4 -15 34 -27 67 -81 234 -184
523 -191 540 -5 11 -28 74 -51 140 -52 149 -84 241 -148 420 -28 77 -69 194
-92 260 -23 66 -44 127 -47 135 -3 8 -7 20 -8 26 -2 8 233 11 841 11 592 0
841 -3 837 -11z m2257 8 c0 -4 -37 -108 -55 -154 -7 -19 -32 -89 -55 -155 -23
-66 -45 -129 -50 -140 -5 -11 -18 -47 -28 -80 -11 -33 -53 -150 -92 -260 -39
-110 -112 -315 -161 -455 -49 -140 -96 -271 -104 -290 -7 -19 -15 -41 -17 -49
-5 -16 -32 23 -383 524 -123 176 -230 328 -237 337 -17 22 -318 453 -338 483
-8 13 -45 66 -83 118 -37 53 -70 102 -73 110 -4 12 123 14 836 14 462 0 840
-1 840 -3z m-1684 -514 c153 -217 429 -611 614 -875 185 -264 339 -485 343
-492 5 -8 -299 -11 -1233 -11 -728 0 -1240 4 -1240 9 0 5 125 188 277 406 152
219 302 434 332 478 30 44 109 158 176 252 66 95 192 276 280 403 88 126 163
229 167 227 4 -1 132 -180 284 -397z m-2437 150 c53 -149 68 -192 164 -460 46
-130 174 -491 308 -870 17 -47 34 -94 39 -105 8 -19 30 -85 30 -91 0 -5 -1505
-2 -1513 3 -4 2 1 19 11 36 11 18 33 57 50 87 16 30 102 186 189 345 88 160
176 319 195 355 19 36 71 130 115 210 82 148 139 253 178 325 12 22 31 56 42
75 11 19 41 76 68 125 48 89 66 118 70 113 1 -2 26 -68 54 -148z m4417 52 c60
-111 90 -166 151 -277 27 -49 67 -121 88 -160 21 -38 60 -110 88 -160 27 -49
112 -205 188 -345 77 -140 143 -262 148 -270 33 -52 161 -292 161 -300 0 -6 4
-10 9 -10 5 0 11 -8 15 -17 3 -10 9 -23 12 -30 4 -9 -179 -11 -755 -11 -419 0
-761 1 -761 3 0 5 111 319 125 355 8 19 35 96 60 170 46 133 58 166 88 245 9
22 48 132 88 245 78 224 149 424 200 567 18 50 36 90 40 87 4 -2 29 -44 55
-92z m-3712 -2034 c32 -90 68 -193 82 -230 58 -162 79 -220 184 -518 61 -173
122 -345 136 -382 57 -159 77 -215 154 -433 45 -126 94 -266 110 -310 37 -104
89 -252 102 -290 5 -16 14 -39 19 -50 5 -11 33 -90 63 -175 30 -85 83 -237
119 -338 35 -100 63 -182 62 -182 -2 0 -39 44 -84 98 -44 53 -87 104 -95 112
-7 8 -102 121 -210 250 -109 129 -207 246 -219 260 -12 14 -56 65 -97 115 -41
49 -85 101 -97 115 -18 21 -500 594 -623 740 -21 25 -79 95 -130 155 -51 61
-111 132 -134 159 -23 27 -45 54 -51 60 -5 6 -44 52 -85 101 -41 50 -77 92
-80 95 -3 3 -73 86 -155 185 -83 99 -152 182 -155 185 -3 3 -64 75 -135 160
-72 85 -132 157 -135 160 -3 3 -27 31 -54 63 l-48 57 749 0 750 0 57 -162z
m2636 158 c0 -2 -23 -69 -51 -148 -89 -253 -166 -469 -217 -613 -28 -77 -76
-212 -107 -300 -31 -88 -120 -338 -197 -555 -77 -217 -148 -417 -158 -445 -10
-27 -35 -97 -55 -155 -41 -116 -114 -319 -150 -420 -13 -36 -60 -168 -105
-295 -147 -419 -150 -427 -157 -405 -6 19 -57 164 -88 250 -13 36 -48 135 -78
220 -65 183 -233 653 -345 970 -44 124 -106 297 -137 385 -31 88 -67 189 -80
225 -21 57 -213 596 -342 960 -62 177 -113 323 -113 327 0 1 535 3 1190 3 655
0 1190 -2 1190 -4z m1704 -123 c-58 -71 -115 -139 -127 -153 -12 -14 -46 -54
-77 -90 -30 -36 -57 -67 -60 -70 -4 -4 -71 -85 -110 -134 -8 -10 -22 -26 -31
-35 -8 -9 -37 -43 -65 -76 -27 -33 -51 -62 -54 -65 -3 -3 -50 -59 -105 -125
-55 -66 -109 -131 -122 -145 -12 -14 -40 -47 -63 -75 -23 -27 -52 -61 -64 -75
-11 -14 -79 -95 -151 -180 -71 -85 -134 -160 -140 -166 -5 -6 -28 -33 -50 -60
-22 -26 -67 -80 -100 -119 -33 -38 -94 -110 -135 -160 -41 -49 -79 -95 -85
-101 -15 -17 -45 -53 -104 -124 -30 -36 -57 -67 -60 -70 -3 -3 -35 -41 -71
-85 -35 -44 -69 -84 -75 -90 -6 -5 -56 -64 -111 -130 -54 -66 -101 -122 -104
-125 -3 -3 -28 -32 -55 -65 -28 -33 -52 -62 -55 -65 -3 -3 -37 -43 -75 -90
-39 -46 -77 -92 -85 -100 -8 -9 -33 -37 -55 -64 -103 -124 -99 -124 -56 -1 87
248 163 462 176 495 8 19 27 73 44 120 46 132 446 1258 502 1415 28 77 64 178
81 225 16 47 40 114 53 150 13 36 63 176 111 313 l88 247 748 0 749 0 -107
-127z"/>
</g>
</svg>
